<?xml version="1.0" standalone="no"?>
<!DOCTYPE svg PUBLIC "-//W3C//DTD SVG 1.1//EN" "http://www.w3.org/Graphics/SVG/1.1/DTD/svg11.dtd" >
<svg xmlns="http://www.w3.org/2000/svg">
<metadata>
This is a custom SVG webfont generated by Fontspring.
Designer    : Ray Larabie
Foundry     : Ray Larabie
Foundry URL : httpwwwtypodermiccom
</metadata>
<defs>
<font id="XenaraRegular" horiz-adv-x="577" >
<font-face units-per-em="1000" ascent="800" descent="-200" />
<missing-glyph horiz-adv-x="389" />
<glyph unicode=" "  horiz-adv-x="389" />
<glyph unicode="&#x09;" horiz-adv-x="389" />
<glyph unicode="&#xa0;" horiz-adv-x="389" />
<glyph unicode="!" horiz-adv-x="294" d="M147 167q36 0 62 -26t26 -63t-26 -63t-62 -26q-37 0 -63 26t-26 63t26 63t63 26zM121 734h60q28 0 28 -37l-29 -414q-2 -29 -33 -29q-32 0 -34 29l-23 414q0 37 31 37z" />
<glyph unicode="&#x22;" horiz-adv-x="433" d="M90 734h57q27 0 27 -32l-29 -310q-3 -29 -33 -29q-31 0 -33 29l-23 310q0 32 34 32zM294 734h57q28 0 28 -31l-29 -311q-5 -29 -34 -29q-31 0 -33 29l-23 311q0 31 34 31z" />
<glyph unicode="#" horiz-adv-x="591" d="M327 289l39 147h-106l-39 -147h106zM299 815q20 0 33.5 -13.5t13.5 -32.5q0 -5 -2 -13l-60 -227h107l66 251q9 35 45 35q20 0 33.5 -13.5t13.5 -32.5q0 -5 -2 -13l-60 -227q56 0 56 -46q0 -47 -47 -47h-33l-39 -147h36q52 0 52 -47t-52 -47h-62l-62 -236q-9 -36 -44 -36 q-20 0 -34 13.5t-14 33.5q0 4 2 12l56 213h-107l-62 -236q-9 -36 -44 -36q-20 0 -34 13.5t-14 33.5q0 4 2 12l56 213q-58 0 -58 47t47 47h36l39 146h-41q-55 0 -55 48q0 46 55 46h66l66 251q9 35 45 35z" />
<glyph unicode="$" horiz-adv-x="547" d="M120 618h105v69q0 47 47 47t47 -47v-69h141q49 0 49 -43q0 -50 -49 -50h-329v-98h272q105 0 105 -98v-114q0 -34 -23.5 -58t-58.5 -24h-107v-87q0 -47 -47 -47t-47 47v87h-131q-56 0 -56 46q0 47 56 47h321v108h-295q-82 0 -82 82v120q0 31 25 56.5t57 25.5z" />
<glyph unicode="%" horiz-adv-x="714" d="M213 650h-51q-28 0 -28 -27v-122q0 -28 28 -28h51q28 0 28 28v122q0 27 -28 27zM558 756q20 0 34 -13.5t14 -32.5q0 -13 -7 -24l-415 -693q-15 -23 -41 -23q-19 0 -33.5 13t-14.5 33q0 10 8 23l415 694q14 23 40 23zM151 734h73q100 0 100 -100v-144q0 -100 -100 -100 h-73q-100 0 -100 100v144q0 100 100 100zM554 261h-51q-28 0 -28 -28v-122q0 -28 28 -28h51q28 0 28 28v122q0 28 -28 28zM492 344h73q100 0 100 -100v-144q0 -100 -100 -100h-73q-100 0 -100 100v144q0 100 100 100z" />
<glyph unicode="&#x26;" horiz-adv-x="594" d="M351 93l22 35l-164 195l-57 -54v-176h199zM320 640h-168v-104l69 -83l99 88v99zM503 285q19 0 32.5 -13t13.5 -32q0 -24 -23 -56l-40 -50l51 -53q14 -16 14 -39q0 -18 -15 -31t-34 -13t-38 22l-31 38l-17 -27q-19 -31 -52 -31h-223q-35 0 -58.5 21t-23.5 54v214 q0 23 36 57l57 46l-84 101q-9 12 -9 22v137q0 82 82 82h190q82 0 82 -82v-133q-1 -22 -16 -35l-116 -102l147 -176l38 59q13 20 37 20z" />
<glyph unicode="'" horiz-adv-x="213" d="M82 734h57q28 0 28 -32l-29 -310q-5 -29 -34 -29q-31 0 -33 29l-23 310q0 32 34 32z" />
<glyph unicode="(" horiz-adv-x="428" d="M317 811q19 0 32.5 -13.5t13.5 -33.5q0 -13 -6.5 -22t-14.5 -13.5t-30.5 -15t-39.5 -20.5q-68 -39 -103.5 -122t-35.5 -186q0 -138 56.5 -233t161.5 -142q32 -15 32 -42q0 -20 -13.5 -34.5t-32.5 -14.5q-9 0 -16 3q-128 44 -205 171.5t-77 288.5q0 155 70.5 270 t192.5 157q3 0 5.5 0.5t4 1t3 0.5h2.5z" />
<glyph unicode=")" horiz-adv-x="428" d="M111 -81q-19 0 -32.5 14t-13.5 34q0 13 6.5 21.5t15 13t31 15.5t39.5 21q68 39 103 121.5t35 185.5q0 137 -56.5 232.5t-160.5 142.5q-32 14 -32 43q0 20 13 34t32 14q8 0 17 -3q128 -44 205 -171t77 -288q0 -155 -70.5 -270t-192.5 -158q-12 -2 -16 -2z" />
<glyph unicode="*" horiz-adv-x="417" d="M209 736q39 0 39 -39v-82l57 32q21 12 35 12q16 0 27.5 -11t11.5 -28q0 -27 -35 -43l-54 -26l54 -30q35 -20 35 -46q0 -15 -11 -26t-25 -11q-19 0 -42 15l-49 33v-75q0 -45 -43 -45q-42 0 -42 45v75l-50 -33q-23 -15 -43 -15q-13 0 -24 11t-11 26q0 25 34 46l55 30 l-55 26q-34 16 -34 43q0 17 11.5 28t28.5 11q13 0 34 -12l57 -32v82q0 39 39 39z" />
<glyph unicode="+" horiz-adv-x="528" d="M265 603q47 0 47 -47v-141h141q47 0 47 -46q0 -47 -47 -47h-141v-144q0 -47 -47 -47q-46 0 -46 47v144h-144q-46 0 -46 47q0 46 46 46h144v141q0 47 46 47z" />
<glyph unicode="," horiz-adv-x="286" d="M133 133h95q27 0 27 -14q0 -2 -2 -12l-124 -252q-12 -25 -42 -25q-43 0 -43 20l58 257q5 26 31 26z" />
<glyph unicode="-" horiz-adv-x="504" d="M104 415h294q47 0 47 -46q0 -47 -47 -47h-294q-46 0 -46 47q0 46 46 46z" />
<glyph unicode="." horiz-adv-x="296" d="M148 167q36 0 62 -26t26 -63t-26 -63t-62 -26q-37 0 -63 26t-26 63t26 63t63 26z" />
<glyph unicode="/" horiz-adv-x="602" d="M528 794q20 0 34 -13.5t14 -32.5q0 -15 -8 -24l-454 -761q-15 -23 -41 -23q-19 0 -33 13t-14 33q0 12 7 23l454 761q13 24 41 24z" />
<glyph unicode="0" horiz-adv-x="646" d="M323 0q-127 0 -203 94t-76 271q0 178 76 273.5t203 95.5t203 -95.5t76 -273.5q0 -177 -76 -271t-203 -94zM323 93q191 0 191 272q0 275 -191 275t-191 -275q0 -272 191 -272z" />
<glyph unicode="1" horiz-adv-x="306" d="M209 734q37 0 37 -41v-646q0 -47 -46 -47q-47 0 -47 47v538l-54 -44q-15 -13 -30 -13q-19 0 -33 14.5t-14 33.5q0 22 17 36l131 105q22 17 39 17z" />
<glyph unicode="2" horiz-adv-x="568" d="M60 47v250q0 144 154 144h199v199h-306q-47 0 -47 47t47 47h353q18 0 32 -14.5t14 -32.5v-293q0 -19 -13.5 -33t-32.5 -14h-262q-45 0 -45 -43v-211h309q46 0 46 -46q0 -47 -46 -47h-355q-19 0 -33 14t-14 33z" />
<glyph unicode="3" horiz-adv-x="579" d="M117 734h327q18 0 32.5 -14t14.5 -33q0 -25 -14 -53l-138 -189h105q88 0 88 -78v-106q0 -123 -117.5 -192t-300.5 -69q-68 0 -68 48q0 45 46 45h28q48 0 99 9t102.5 28t84 56t32.5 87v84h-194q-45 0 -45 34q0 17 14 35l161 214h-257q-47 0 -47 47t47 47z" />
<glyph unicode="4" horiz-adv-x="518" d="M189 734q47 0 47 -62l-96 -450h225v234q0 47 47 47q46 0 46 -47v-409q0 -47 -46 -47q-47 0 -47 47v82h-283q-46 0 -46 46q0 41 5 63l103 458q9 38 45 38z" />
<glyph unicode="5" horiz-adv-x="578" d="M453 640h-290v-160h249q121 0 121 -107v-64q0 -309 -435 -309q-45 0 -45 44q0 21 14 35t35 14q174 0 256 53t82 163v51q0 26 -28 26h-301q-41 0 -41 50v251q0 19 14 33t33 14h336q47 0 47 -47t-47 -47z" />
<glyph unicode="6" horiz-adv-x="592" d="M366 734h65q50 0 50 -47t-50 -47h-65q-97 0 -148.5 -40t-74.5 -125h167q107 0 172.5 -58.5t65.5 -177.5q0 -98 -67 -168.5t-192 -70.5q-140 0 -195 90.5t-55 274.5q0 180 78.5 274.5t248.5 94.5zM331 382h-200v-17q0 -144 35 -208t130 -64q69 0 114 37t45 111 q0 71 -36 106t-88 35z" />
<glyph unicode="7" horiz-adv-x="535" d="M74 734h373q47 0 47 -47v-131l-191 -524q-12 -32 -43 -32q-20 0 -34 13.5t-14 33.5q0 8 3 15l186 503v75h-327q-46 0 -46 47t46 47z" />
<glyph unicode="8" horiz-adv-x="605" d="M363 0h-117q-193 0 -193 239q0 109 74 151q-63 34 -63 144q0 200 197 200h88q196 0 196 -200q0 -109 -62 -144q73 -42 73 -151q0 -239 -193 -239zM384 337h-159q-80 0 -80 -107q0 -137 114 -137h92q113 0 113 137q0 107 -80 107zM347 640h-85q-102 0 -102 -94 q0 -115 65 -115h159q66 0 66 115q0 94 -103 94z" />
<glyph unicode="9" horiz-adv-x="583" d="M299 734h74q150 0 150 -166v-521q0 -47 -47 -47q-46 0 -46 47v212h-153q-108 0 -178.5 58.5t-70.5 177.5q0 96 72.5 167.5t198.5 71.5zM430 352v216q0 72 -73 72h-66q-71 0 -120.5 -37t-49.5 -110q0 -70 41 -105.5t94 -35.5h174z" />
<glyph unicode=":" horiz-adv-x="296" d="M148 167q36 0 62 -26t26 -63t-26 -63t-62 -26q-37 0 -63 26t-26 63t26 63t63 26zM148 551q36 0 62 -26t26 -63t-26 -63t-62 -26q-37 0 -63 26t-26 63t26 63t63 26z" />
<glyph unicode=";" horiz-adv-x="303" d="M180 551q37 0 63 -26t26 -63t-26 -63t-63 -26t-63 26t-26 63t26 63t63 26zM131 133h94q28 0 28 -14q0 -2 -2 -12l-124 -252q-12 -25 -43 -25q-42 0 -42 20l58 257q5 26 31 26z" />
<glyph unicode="&#x3c;" horiz-adv-x="349" d="M244 577q19 0 33 -14t14 -34q0 -18 -14 -32l-137 -137l137 -138q14 -16 14 -33q0 -19 -13.5 -33t-33.5 -14q-18 0 -33 15l-134 127q-37 34 -37 75q0 42 37 76l134 128q14 14 33 14z" />
<glyph unicode="=" horiz-adv-x="588" d="M105 317h378q46 0 46 -46q0 -47 -46 -47h-378q-46 0 -46 47q0 46 46 46zM105 513h378q46 0 46 -47q0 -46 -46 -46h-378q-46 0 -46 46q0 47 46 47z" />
<glyph unicode="&#x3e;" horiz-adv-x="349" d="M87 577q19 0 33 -14l134 -128q37 -34 37 -76q0 -41 -37 -75l-134 -127q-15 -15 -33 -15q-19 0 -33 14t-14 33t13 33l138 138l-138 137q-13 13 -13 32q0 20 14 34t33 14z" />
<glyph unicode="?" horiz-adv-x="509" d="M80 734h341q18 0 32 -14t14 -33v-186q0 -25 -21 -39l-156 -117v-49q0 -44 -42 -44q-52 0 -52 44v74q0 22 22 38l156 117v115h-294q-47 0 -47 47t47 47zM242 167q37 0 63 -26t26 -63t-26 -63t-63 -26t-63 26t-26 63t26 63t63 26z" />
<glyph unicode="@" horiz-adv-x="657" d="M224 734h234q148 0 148 -247v-125q0 -176 -108 -176h-167q-122 0 -122 140v94q0 133 122 133h52q68 0 68 -82v-221h35q52 0 52 93v120q0 204 -108 204h-188q-112 0 -112 -204v-197q0 -198 112 -198h275q41 0 41 -34t-32 -34h-302q-167 0 -167 251v234q0 249 167 249z M359 490h-34q-43 0 -43 -67v-107q0 -64 49 -64h52v214q0 24 -24 24z" />
<glyph unicode="A" d="M496 -1q-41 0 -45 40l-15 100h-296l-13 -100q-6 -40 -46 -40q-20 0 -34 13t-14 32q0 6 1 8l87 611q11 71 93 71h151q83 0 92 -70l87 -620q0 -19 -14 -32t-34 -13zM208 617l-55 -385h270l-53 385q-4 23 -23 23h-117q-19 0 -22 -23z" />
<glyph unicode="B" horiz-adv-x="573" d="M60 0v734h326q137 0 137 -136v-61q0 -99 -60 -141q71 -38 71 -122q0 -274 -270 -274h-204zM370 334h-217v-241h119q170 0 170 181q0 60 -72 60zM398 640h-245v-213h190q45 0 64.5 27.5t19.5 82.5v73q0 30 -29 30z" />
<glyph unicode="C" horiz-adv-x="575" d="M394 93h91q46 0 46 -46q0 -47 -47 -47h-90q-350 0 -350 365v142q0 227 218 227h219q50 0 50 -47t-50 -47h-226q-118 0 -118 -118v-157q0 -272 257 -272z" />
<glyph unicode="D" horiz-adv-x="637" d="M60 0v734h333q184 0 184 -179v-190q0 -365 -379 -365h-138zM153 93h45q287 0 287 272v204q0 71 -85 71h-247v-547z" />
<glyph unicode="E" horiz-adv-x="569" d="M60 281v453h414q47 0 47 -47t-47 -47h-321v-210h302q47 0 47 -47t-47 -47h-302v-87q0 -156 171 -156h160q47 0 47 -46q0 -47 -47 -47h-149q-275 0 -275 281z" />
<glyph unicode="F" horiz-adv-x="557" d="M60 47v687h428q47 0 47 -47t-47 -47h-335v-210h214q47 0 47 -47t-47 -47h-214v-289q0 -47 -46 -47q-47 0 -47 47z" />
<glyph unicode="G" horiz-adv-x="591" d="M262 734h196q50 0 50 -47t-50 -47h-203q-118 0 -118 -118v-157q0 -272 257 -272h43v207q0 46 48 46q46 0 46 -46v-300h-137q-350 0 -350 365v142q0 227 218 227z" />
<glyph unicode="H" horiz-adv-x="619" d="M559 687v-640q0 -47 -46 -47q-47 0 -47 47v277h-313v-277q0 -47 -46 -47q-47 0 -47 47v640q0 47 47 47q46 0 46 -47v-270h313v270q0 47 47 47q46 0 46 -47z" />
<glyph unicode="I" horiz-adv-x="213" d="M107 734q46 0 46 -47v-640q0 -47 -46 -47q-47 0 -47 47v640q0 47 47 47z" />
<glyph unicode="J" horiz-adv-x="468" d="M362 734q46 0 46 -47v-388q0 -299 -283 -299h-45q-47 0 -47 47q0 46 46 46h46q188 0 190 196v398q0 47 47 47z" />
<glyph unicode="K" horiz-adv-x="573" d="M107 734q46 0 46 -47v-270h75l235 300q13 18 35 18q19 0 33 -14t14 -34q0 -16 -11 -30l-231 -290l231 -289q11 -14 11 -30q0 -20 -14 -34t-33 -14q-22 0 -35 18l-235 299h-75v-270q0 -47 -46 -47q-47 0 -47 47v640q0 47 47 47z" />
<glyph unicode="L" horiz-adv-x="549" d="M107 734q46 0 46 -47v-594h328q46 0 46 -46q0 -47 -46 -47h-374q-18 0 -32.5 14t-14.5 33v640q0 47 47 47z" />
<glyph unicode="M" horiz-adv-x="768" d="M97 734q29 0 51 -30l243 -298l228 297q22 31 51 31q38 0 38 -52v-635q0 -47 -46 -47q-47 0 -47 47v509l-177 -233q-18 -28 -45 -28t-44 26l-196 250v-524q0 -47 -46 -47q-47 0 -47 47v635q0 52 37 52z" />
<glyph unicode="N" horiz-adv-x="633" d="M122 734q40 0 63 -40l295 -526v519q0 47 46 47q47 0 47 -47v-619q0 -68 -60 -68q-41 0 -67 46l-293 525v-524q0 -47 -46 -47q-47 0 -47 47v623q0 64 62 64z" />
<glyph unicode="O" horiz-adv-x="642" d="M238 734h166q178 0 178 -179v-385q0 -170 -178 -170h-166q-178 0 -178 170v385q0 179 178 179zM226 93h189q73 0 73 66v407q0 74 -73 74h-189q-73 0 -73 -74v-407q0 -66 73 -66z" />
<glyph unicode="P" horiz-adv-x="573" d="M60 734h340q145 0 145 -140v-81q0 -220 -216 -220h-176v-241q0 -52 -46 -52q-47 0 -47 52v682zM411 640h-258v-254h198q99 0 99 127v91q0 36 -39 36z" />
<glyph unicode="Q" horiz-adv-x="653" d="M238 734h177q178 0 178 -179v-385q0 -144 -126 -166l17 -26q15 -26 38 -26h40q53 0 53 -42q0 -44 -44 -44h-62q-67 0 -109 69l-43 65h-119q-178 0 -178 170v385q0 179 178 179zM226 93h200q74 0 74 66v407q0 74 -74 74h-200q-73 0 -73 -74v-407q0 -66 73 -66z" />
<glyph unicode="R" horiz-adv-x="586" d="M501 46q0 -20 -14.5 -33.5t-33.5 -13.5q-31 0 -42 29l-122 287h-136v-263q0 -52 -46 -52q-47 0 -47 52v682h344q130 0 130 -127v-63q0 -78 -39 -133.5t-112 -76.5l114 -271q4 -7 4 -17zM411 640h-258v-232h158q127 0 127 136v70q0 26 -27 26z" />
<glyph unicode="S" horiz-adv-x="581" d="M396 351h-147q-205 0 -205 193q0 190 204 190h205q54 0 54 -46q0 -48 -54 -48h-223q-90 0 -90 -99q0 -97 91 -97h161q144 0 144 -128q0 -316 -320 -316h-104q-52 0 -52 43q0 50 52 50h117q215 0 215 213q0 45 -48 45z" />
<glyph unicode="T" horiz-adv-x="555" d="M74 734h407q46 0 46 -47t-46 -47h-158v-594q0 -47 -47 -47q-46 0 -46 47v594h-156q-46 0 -46 47t46 47z" />
<glyph unicode="U" horiz-adv-x="613" d="M107 734q46 0 46 -47v-553q0 -41 39 -41h228q40 0 40 41v553q0 47 46 47q47 0 47 -47v-556q0 -131 -123 -131h-241q-129 0 -129 131v556q0 47 47 47z" />
<glyph unicode="V" d="M81 734q40 0 46 -40l82 -584q2 -17 16 -17h127q14 0 17 17l82 584q5 40 45 40q20 0 34 -13t14 -33q0 -4 -1 -8l-82 -583q-6 -43 -36 -70t-73 -27h-127q-43 0 -73 27t-35 70l-84 591q0 20 14 33t34 13z" />
<glyph unicode="W" horiz-adv-x="804" d="M403 734q47 0 47 -47v-594h128q15 0 17 17l82 584q5 40 46 40q20 0 33.5 -12t13.5 -32q0 -6 -1 -10l-82 -583q-6 -43 -36 -70t-73 -27h-353q-43 0 -73 27t-35 70l-84 591q0 20 14 33t34 13q40 0 46 -40l82 -584q2 -17 16 -17h131v594q0 47 47 47z" />
<glyph unicode="X" d="M464 734q20 0 34 -13.5t14 -33.5q0 -13 -7 -25l-164 -266l201 -324q7 -11 7 -25q0 -19 -14 -33t-33 -14q-25 0 -39 22l-174 289l-175 -289q-14 -22 -39 -22q-19 0 -33 14t-14 33q0 14 8 25l202 324l-166 266q-7 12 -7 25q0 19 14 33t34 14q24 0 38 -22l138 -232l137 232 q14 22 38 22z" />
<glyph unicode="Y" horiz-adv-x="553" d="M477 734q20 0 34 -13.5t14 -32.5q0 -13 -4 -21l-197 -417v-203q0 -47 -47 -47q-46 0 -46 47v205l-199 415q-4 9 -4 21q0 19 14 32.5t33 13.5q29 0 42 -27l158 -342l160 342q12 27 42 27z" />
<glyph unicode="Z" horiz-adv-x="517" d="M95 734h322q54 0 54 -49q0 -17 -11 -39l-312 -553h300q47 0 47 -46q0 -47 -47 -47h-369q-19 0 -32 14.5t-13 34.5q0 17 12 39l304 552h-255q-46 0 -46 47t46 47z" />
<glyph unicode="[" horiz-adv-x="287" d="M157 778h44q47 0 47 -47q0 -46 -47 -46h-30q-19 0 -19 -20v-756q0 -20 18 -20h31q47 0 47 -47q0 -46 -47 -46h-44q-98 0 -98 90v797q0 95 98 95z" />
<glyph unicode="\" horiz-adv-x="602" d="M73 794q26 0 41 -24l454 -761q8 -11 8 -23q0 -20 -14 -33t-34 -13q-27 0 -41 23l-454 761q-7 10 -7 24q0 19 14 32.5t33 13.5z" />
<glyph unicode="]" horiz-adv-x="289" d="M85 778h45q98 0 98 -95v-797q0 -90 -98 -90h-45q-46 0 -46 46q0 47 46 47h32q17 0 17 20v756q0 20 -19 20h-30q-46 0 -46 46q0 47 46 47z" />
<glyph unicode="^" horiz-adv-x="521" d="M260 715q38 0 75 -37l128 -135q14 -14 14 -32q0 -19 -14 -33.5t-33 -14.5t-33 14l-137 138l-138 -138q-14 -14 -33 -14t-33 14t-14 34q0 17 15 32l128 134q35 36 75 38z" />
<glyph unicode="_" horiz-adv-x="627" d="M18 -42h586q46 0 46 -47q0 -46 -46 -46h-586q-47 0 -47 46q0 47 47 47z" />
<glyph unicode="`" horiz-adv-x="316" d="M83 766q10 0 19 -5l150 -74q20 -11 20 -31q0 -14 -12 -27t-28 -13q-8 0 -17 4l-150 76q-21 10 -21 33q0 14 11.5 25.5t27.5 11.5z" />
<glyph unicode="a" d="M428 366v70h-305q-59 0 -59 47q0 46 59 46h314q34 0 59.5 -27.5t25.5 -61.5v-440h-420q-19 0 -32.5 14t-13.5 33v166q0 36 21.5 60.5t57.5 32.5zM149 93h279v183l-279 -56v-127z" />
<glyph unicode="b" horiz-adv-x="588" d="M149 529h284q100 0 100 -97v-177q0 -255 -220 -255h-257v709q0 47 46 47q47 0 47 -47v-180zM149 436v-343h166q125 0 125 151v192h-291z" />
<glyph unicode="c" horiz-adv-x="561" d="M332 93h123q46 0 46 -46q0 -47 -47 -47h-122q-283 0 -283 268v93q0 168 176 168h226q50 0 50 -46q0 -47 -50 -47h-223q-87 0 -87 -95v-73q0 -175 191 -175z" />
<glyph unicode="d" horiz-adv-x="588" d="M440 529v180q0 47 46 47q47 0 47 -47v-709h-379q-98 0 -98 95v256q0 178 197 178h187zM149 93h291v343h-196q-95 0 -95 -97v-246z" />
<glyph unicode="e" horiz-adv-x="582" d="M102 529h378q19 0 32.5 -13.5t13.5 -32.5v-207q0 -46 -46 -46h-331v-58q0 -79 97 -79h234q46 0 46 -46q0 -47 -46 -47h-262q-162 0 -162 164v319q0 19 13.5 32.5t32.5 13.5zM149 314h284v122h-284v-122z" />
<glyph unicode="f" horiz-adv-x="408" d="M148 756h192q46 0 46 -47q0 -46 -47 -46h-145v-134h125q46 0 46 -46q0 -47 -46 -47h-125v-389q0 -47 -46 -47q-47 0 -47 47v389h-24q-55 0 -55 47q0 46 55 46h24v180q0 18 14 32.5t33 14.5z" />
<glyph unicode="g" horiz-adv-x="588" d="M149 92l291 1v343h-192q-99 0 -99 -99v-245zM249 529h284v-651q0 -36 -22.5 -59t-59.5 -23h-297q-46 0 -46 46q0 47 46 47h270q16 0 16 16v95h-285q-47 0 -73 26t-26 72v248q0 183 193 183z" />
<glyph unicode="h" horiz-adv-x="588" d="M149 709v-180h192q192 0 192 -179v-299q0 -21 -13 -36t-34 -15q-46 0 -46 51v291q0 94 -98 94h-193v-389q0 -20 -13.5 -33.5t-33.5 -13.5t-33 13.5t-13 33.5v662q0 47 46 47q47 0 47 -47z" />
<glyph unicode="i" horiz-adv-x="263" d="M150 756q30 0 52 -21.5t22 -52.5t-22 -53t-52 -22q-31 0 -53.5 22t-22.5 53t22.5 52.5t53.5 21.5zM69 529h92q47 0 47 -46v-436q0 -47 -47 -47t-47 47v389h-44q-48 0 -48 47q0 46 47 46z" />
<glyph unicode="j" horiz-adv-x="357" d="M147 529h98q47 0 47 -46v-640q0 -46 -47 -46h-172q-46 0 -46 46q0 47 46 47h126v546h-52q-47 0 -47 47q0 46 47 46zM229 756q30 0 52 -21.5t22 -52.5t-22 -53t-52 -22q-31 0 -53.5 22t-22.5 53t22.5 52.5t53.5 21.5z" />
<glyph unicode="k" horiz-adv-x="536" d="M149 709v-373h84l184 179q16 14 34 14q19 0 32.5 -13.5t13.5 -32.5q0 -20 -22 -40l-164 -153l181 -211q12 -15 14 -33q0 -19 -14.5 -32.5t-34.5 -13.5q-16 0 -30 16l-194 228h-84v-197q0 -47 -47 -47q-46 0 -46 47v662q0 47 46 47q47 0 47 -47z" />
<glyph unicode="l" horiz-adv-x="263" d="M194 -1h-92q-46 0 -46 47v663q0 47 46 47q47 0 47 -47v-617h44q48 0 48 -46q0 -47 -47 -47z" />
<glyph unicode="m" horiz-adv-x="739" d="M56 47v482h520q108 0 108 -113v-369q0 -47 -47 -47q-46 0 -46 47v369q0 20 -19 20h-159v-389q0 -47 -47 -47q-46 0 -46 47v389h-171v-389q0 -47 -47 -47q-46 0 -46 47z" />
<glyph unicode="n" horiz-adv-x="582" d="M56 47v482h325q145 0 145 -146v-336q0 -47 -46 -47q-47 0 -47 47v336q0 53 -52 53h-232v-389q0 -47 -47 -47q-46 0 -46 47z" />
<glyph unicode="o" horiz-adv-x="588" d="M233 529h122q178 0 178 -178v-181q0 -170 -178 -170h-122q-177 0 -177 170v181q0 178 177 178zM222 93h144q74 0 74 66v203q0 74 -74 74h-144q-73 0 -73 -74v-203q0 -66 73 -66z" />
<glyph unicode="p" horiz-adv-x="588" d="M149 0v-157q0 -46 -47 -46q-46 0 -46 46v686h378q99 0 99 -95v-255q0 -179 -198 -179h-186zM440 436h-291v-343h195q96 0 96 98v245z" />
<glyph unicode="q" horiz-adv-x="588" d="M440 0h-285q-99 0 -99 98v176q0 255 219 255h258v-687q0 -46 -47 -46q-46 0 -46 46v158zM440 93v343h-167q-124 0 -124 -151v-192h291z" />
<glyph unicode="r" horiz-adv-x="402" d="M223 529h100q46 0 46 -43q0 -50 -47 -50h-99q-52 0 -52 -53v-336q0 -47 -47 -47q-46 0 -46 47v336q0 146 145 146z" />
<glyph unicode="s" horiz-adv-x="588" d="M195 529h268q50 0 50 -43q0 -50 -50 -50h-273q-39 0 -39 -34v-50q0 -32 39 -32h233q105 0 105 -96v-35q0 -189 -185 -189h-229q-56 0 -56 46q0 47 56 47h251q70 0 70 77v60h-240q-137 0 -137 125v48q0 126 137 126z" />
<glyph unicode="t" horiz-adv-x="387" d="M148 756q46 0 46 -47v-180h113q47 0 47 -46q0 -47 -47 -47h-113v-343h78q48 0 48 -46q0 -47 -47 -47h-125q-47 0 -47 47v389h-24q-55 0 -55 47q0 46 55 46h24v180q0 47 47 47z" />
<glyph unicode="u" horiz-adv-x="571" d="M515 483v-483h-314q-145 0 -145 147v336q0 46 46 46q47 0 47 -46v-336q0 -54 52 -54h221v390q0 46 46 46q47 0 47 -46z" />
<glyph unicode="v" horiz-adv-x="571" d="M494 529q49 0 49 -46q0 -10 -4 -18l-165 -436q-12 -29 -43 -29h-88q-31 0 -43 29l-169 436q-3 9 -3 18q0 46 49 46q34 0 46 -29l152 -415h25l147 415q11 29 47 29z" />
<glyph unicode="w" horiz-adv-x="717" d="M102 529q47 0 47 -46v-352q0 -38 25 -38h138v390q0 46 47 46q46 0 46 -46v-390h134q29 0 29 27v363q0 46 47 46t47 -46v-352q0 -131 -131 -131h-347q-128 0 -128 131v352q0 46 46 46z" />
<glyph unicode="x" horiz-adv-x="572" d="M475 529q19 0 33 -13.5t14 -32.5q0 -15 -13 -31l-164 -184l163 -189q11 -14 11 -31q0 -20 -13.5 -34t-32.5 -14q-22 0 -36 17l-151 178l-152 -178q-15 -17 -34 -17t-33 14t-14 34q0 15 11 31l165 189l-167 184q-12 15 -12 31q0 19 14 32.5t34 13.5q19 0 34 -16l154 -180 l154 180q12 16 35 16z" />
<glyph unicode="y" horiz-adv-x="571" d="M490 529q25 0 39 -13t14 -32q0 -11 -4 -19l-236 -602q-27 -67 -78 -67h-80q-19 0 -32 14t-13 33q0 47 63 47h49l43 111q-39 0 -51 29l-173 435q-3 9 -3 18q0 20 14 33t39 13q30 0 42 -29l164 -413l160 413q12 29 43 29z" />
<glyph unicode="z" horiz-adv-x="529" d="M97 529h320q50 0 50 -41q-2 -19 -12 -33l-264 -362h242q47 0 47 -46q0 -47 -47 -47h-331q-50 0 -50 41q0 15 12 33l266 362h-233q-47 0 -47 47q0 46 47 46z" />
<glyph unicode="{" horiz-adv-x="357" d="M216 778h42q44 0 44 -43q0 -45 -44 -45h-42q-4 0 -4 -5v-296q0 -55 -45 -92q45 -31 45 -95v-311q0 -8 8 -8h38q44 0 44 -43q0 -44 -44 -44h-42q-38 0 -65.5 24.5t-27.5 60.5v329q0 14 -11 24t-23.5 15t-23.5 17.5t-11 30.5q0 19 11 31.5t23.5 17.5t23.5 14t11 21v307 q0 37 26 63.5t67 26.5z" />
<glyph unicode="|" horiz-adv-x="216" d="M153 709v-867q0 -46 -46 -46q-47 0 -47 46v867q0 47 47 47q46 0 46 -47z" />
<glyph unicode="}" horiz-adv-x="357" d="M98 778h41q41 0 67 -26.5t26 -63.5v-307q0 -12 11 -21t23.5 -14t23.5 -17.5t11 -31.5q0 -18 -11 -30.5t-23.5 -17.5t-23.5 -15t-11 -24v-329q0 -36 -27.5 -60.5t-65.5 -24.5h-41q-45 0 -45 44q0 43 45 43h37q8 0 8 8v311q0 65 46 95q-46 36 -46 92v296q0 5 -4 5h-41 q-45 0 -45 45q0 43 45 43z" />
<glyph unicode="~" horiz-adv-x="493" d="M174 438q41 0 84 -29t61 -29q13 0 35 26.5t40 26.5q20 0 33.5 -13.5t13.5 -32.5q0 -35 -42 -68t-80 -33q-31 0 -74 29.5t-71 29.5q-10 0 -17.5 -9t-11.5 -20.5t-15.5 -20.5t-28.5 -9q-20 0 -34 14t-14 34q0 40 37.5 72t83.5 32z" />
<glyph unicode="&#xa1;" horiz-adv-x="282" d="M140 452q-37 0 -63 26t-26 63q0 36 26 62t63 26t63 -26t26 -62q0 -37 -26 -63t-63 -26zM165 -115h-60q-27 0 -27 36l29 414q2 29 33 29t33 -29l23 -414q0 -36 -31 -36z" />
<glyph unicode="&#xa2;" horiz-adv-x="521" d="M319 734q46 0 46 -47v-64h67q50 0 50 -47t-50 -47h-113q-191 0 -191 -165q0 -163 191 -163h117q46 0 46 -47q0 -46 -47 -46h-70v-61q0 -47 -46 -47q-47 0 -47 47v63q-236 19 -236 254t236 256v67q0 47 47 47z" />
<glyph unicode="&#xa3;" horiz-adv-x="660" d="M47 47q0 46 46 46h62v242h-31q-46 0 -46 47q0 46 46 46h31v241q0 65 47 65h284q50 0 50 -46q0 -48 -50 -48h-237v-212h171q46 0 46 -46q0 -47 -46 -47h-171v-242h269v119q0 44 48 44t48 -44v-130q0 -36 -24.5 -59t-60.5 -23h-436q-46 0 -46 47z" />
<glyph unicode="&#xa5;" horiz-adv-x="602" d="M100 733q28 0 41 -27l159 -341l160 341q10 27 42 27q19 0 33 -13.5t14 -32.5q0 -13 -4 -21l-193 -408h138q46 0 46 -47t-46 -47h-141v-117q0 -47 -47 -47t-47 47v117h-143q-47 0 -47 47t47 47h140l-195 408q-5 9 -5 21q0 19 14 32.5t34 13.5z" />
<glyph unicode="&#xa6;" horiz-adv-x="216" d="M153 687v-317q0 -46 -46 -46q-47 0 -47 46v317q0 47 47 47q46 0 46 -47zM153 159v-317q0 -46 -46 -46q-47 0 -47 46v317q0 47 47 47q46 0 46 -47z" />
<glyph unicode="&#xa7;" horiz-adv-x="556" d="M502 372v-325q0 -19 -14 -33t-33 -14h-355q-47 0 -47 47q0 46 47 46h308v232h-306q-19 0 -32.5 14t-13.5 33v315q0 18 14 32.5t32 14.5h353q47 0 47 -47t-47 -47h-306v-222h306q47 0 47 -46z" />
<glyph unicode="&#xa8;" horiz-adv-x="428" d="M102 743q24 0 41 -15.5t17 -38.5t-17 -38.5t-41 -15.5q-23 0 -40.5 15.5t-17.5 38.5t17.5 38.5t40.5 15.5zM326 743q24 0 41 -15.5t17 -38.5t-17 -38.5t-41 -15.5q-23 0 -40 15.5t-17 38.5t17 38.5t40 15.5z" />
<glyph unicode="&#xa9;" horiz-adv-x="815" d="M407 745q157 0 258 -108.5t101 -266.5q0 -160 -101 -270.5t-258 -110.5t-257.5 110.5t-100.5 270.5q0 159 100.5 267t257.5 108zM407 693q-131 0 -215.5 -92t-84.5 -231q0 -141 83.5 -235t216.5 -94q130 0 215 95t85 234t-84.5 231t-215.5 92zM423 263h74q28 0 28 -28 q0 -27 -29 -27h-73q-169 0 -169 159q0 157 169 157h72q30 0 30 -28t-30 -28h-72q-114 0 -114 -101q0 -104 114 -104z" />
<glyph unicode="&#xaa;" horiz-adv-x="400" d="M124 481h151v94l-151 -31v-63zM275 638v30h-172q-39 0 -39 34q0 32 39 32h182q22 0 38.5 -17.5t16.5 -40.5v-260h-249q-32 0 -32 32v97q0 22 14.5 38t36.5 21z" />
<glyph unicode="&#xab;" horiz-adv-x="583" d="M477 577q19 0 33 -14t14 -34q0 -17 -13 -32l-138 -137l138 -138q13 -16 13 -33q0 -19 -14 -33t-33 -14q-18 0 -33 15l-134 127q-48 44 -48 76q0 30 48 75l134 128q14 14 33 14zM255 577q19 0 33 -14t14 -34q0 -17 -13 -32l-138 -137l138 -138q13 -16 13 -33 q0 -19 -14 -33t-33 -14q-18 0 -33 15l-134 127q-48 44 -48 76q0 30 48 75l134 128q14 14 33 14z" />
<glyph unicode="&#xad;" horiz-adv-x="504" d="M104 415h294q47 0 47 -46q0 -47 -47 -47h-294q-46 0 -46 47q0 46 46 46z" />
<glyph unicode="&#xae;" horiz-adv-x="603" d="M302 748q110 0 181 -76.5t71 -187.5q0 -113 -71 -191t-181 -78q-111 0 -182 78t-71 191q0 112 71 188t182 76zM302 704q-90 0 -147 -62.5t-57 -157.5q0 -96 56.5 -160t147.5 -64q90 0 147 64.5t57 159.5t-57.5 157.5t-146.5 62.5zM395 364q0 -7 -6 -13t-14 -6 q-11 0 -16 11l-52 97h-56v-86q0 -22 -20 -22q-19 0 -19 22v239q0 12 12 12h103q83 0 83 -83q0 -70 -63 -79l47 -84q1 -1 1 -8zM370 539q0 40 -43 40h-76v-87h91q28 0 28 47z" />
<glyph unicode="&#xaf;" horiz-adv-x="507" d="M81 697h345q37 0 37 -38q0 -35 -37 -35h-345q-37 0 -37 35q0 38 37 38z" />
<glyph unicode="&#xb0;" horiz-adv-x="398" d="M199 761q63 0 107 -43.5t44 -107.5q0 -62 -44 -105.5t-107 -43.5t-106.5 43.5t-43.5 105.5q0 64 43.5 107.5t106.5 43.5zM199 709q-41 0 -69.5 -29t-28.5 -70t28.5 -69t69.5 -28t69.5 28.5t28.5 68.5q0 41 -28.5 70t-69.5 29z" />
<glyph unicode="&#xb1;" horiz-adv-x="528" d="M265 603q47 0 47 -47v-141h141q47 0 47 -46q0 -47 -47 -47h-141v-144q0 -47 -47 -47q-46 0 -46 47v144h-144q-46 0 -46 47q0 46 46 46h144v141q0 47 46 47zM75 93h378q46 0 46 -46q0 -47 -46 -47h-378q-46 0 -46 47q0 46 46 46z" />
<glyph unicode="&#xb2;" horiz-adv-x="374" d="M243 581v81h-149q-35 0 -35 35q0 37 35 37h183q36 0 36 -37v-152q0 -37 -36 -37h-133q-15 0 -15 -15v-93h150q35 0 35 -37q0 -33 -35 -33h-185q-35 0 -35 33v132q0 86 91 86h93z" />
<glyph unicode="&#xb3;" horiz-adv-x="380" d="M103 734h171q16 0 25.5 -10.5t9.5 -26.5q0 -19 -14 -40l-57 -74h36q57 0 57 -52v-55q0 -67 -59.5 -106.5t-169.5 -39.5q-46 0 -46 34q0 36 34 36h15q64 0 110 20t46 60v34h-91q-19 0 -27 7t-8 23q0 12 9 25l74 93h-115q-35 0 -35 35q0 37 35 37z" />
<glyph unicode="&#xb4;" horiz-adv-x="316" d="M233 766q16 0 27.5 -11.5t11.5 -25.5q0 -23 -21 -33l-150 -76q-9 -4 -17 -4q-16 0 -28 13t-12 27q0 20 20 31l150 74q9 5 19 5z" />
<glyph unicode="&#xb6;" horiz-adv-x="573" d="M274 734h240q30 0 30 -29v-653q0 -52 -47 -52q-46 0 -46 52v241h-51v-246q0 -47 -47 -47t-47 47v246h-31q-104 0 -160 55.5t-56 164.5t55.5 165t159.5 56zM154 513q0 -127 99 -127h53v254h-53q-99 0 -99 -127zM400 386h51v254h-51v-254z" />
<glyph unicode="&#xb7;" horiz-adv-x="296" d="M148 466q36 0 62 -26t26 -63q0 -36 -26 -62t-62 -26q-37 0 -63 26t-26 62q0 37 26 63t63 26z" />
<glyph unicode="&#xb8;" horiz-adv-x="221" d="M100 -14h59q17 0 17 -9v-3q0 -3 -1 -5l-77 -158q-8 -15 -27 -15q-27 0 -27 12l37 161q2 17 19 17z" />
<glyph unicode="&#xb9;" horiz-adv-x="229" d="M135 734q32 0 32 -34v-337q0 -33 -36 -33t-36 33v257l-7 -7q-9 -9 -25 -9t-26 10t-10 26t13 29l68 54q16 11 27 11z" />
<glyph unicode="&#xba;" horiz-adv-x="400" d="M159 481h82q38 0 38 32v119q0 36 -38 36h-82q-38 0 -38 -36v-119q0 -32 38 -32zM164 734h71q108 0 108 -109v-106q0 -103 -108 -103h-71q-108 0 -108 103v106q0 109 108 109z" />
<glyph unicode="&#xbb;" horiz-adv-x="583" d="M327 577q20 0 34 -14l134 -128q48 -47 48 -75q0 -31 -48 -76l-134 -127q-15 -15 -34 -15t-32.5 14t-13.5 33t13 33l138 138l-138 137q-13 13 -13 32q0 20 13.5 34t32.5 14zM105 577q20 0 34 -14l134 -128q48 -47 48 -75q0 -31 -48 -76l-134 -127q-15 -15 -34 -15 t-32.5 14t-13.5 33t13 33l138 138l-138 137q-13 13 -13 32q0 20 13.5 34t32.5 14z" />
<glyph unicode="&#xbc;" horiz-adv-x="310" d="M122 327q17 0 24 -6.5t7 -25.5l-41 -184h76v91q0 27 30 27q26 0 26 -27v-175q0 -27 -26 -27q-30 0 -30 27v27h-110q-29 0 -29 27q0 13 2 29l43 194q8 23 28 23zM162 756q24 0 24 -27v-274q0 -27 -28 -27t-28 27v209l-7 -6q-7 -6 -20 -6q-12 0 -20.5 8t-8.5 20t10 24 l55 43q12 9 23 9zM59 412h201q32 0 32 -31q0 -34 -32 -34h-201q-31 0 -31 34q0 31 31 31z" />
<glyph unicode="&#xbd;" horiz-adv-x="305" d="M163 756q25 0 25 -28v-274q0 -26 -29 -26t-29 27v210l-6 -7q-8 -6 -20 -6t-21 8t-9 20t10 25l56 42q12 9 23 9zM198 203v66h-121q-28 0 -28 28q0 30 28 30h148q29 0 29 -30v-123q0 -30 -29 -30h-107q-14 0 -14 -12v-75h122q29 0 29 -30q0 -27 -29 -27h-149q-28 0 -28 27 v107q0 69 73 69h76zM56 412h199q34 0 34 -31q0 -34 -34 -34h-199q-32 0 -32 34q0 31 32 31z" />
<glyph unicode="&#xbe;" horiz-adv-x="317" d="M85 760h139q29 0 29 -30q0 -14 -11 -31l-48 -61h30q47 0 47 -42v-44q0 -54 -49 -86.5t-138 -32.5q-36 0 -36 28q0 29 27 29h13q52 0 89 16t37 49v28h-74q-16 0 -22 5.5t-6 18.5q0 11 8 21l59 74h-94q-27 0 -27 28q0 30 27 30zM124 327q16 0 23 -6.5t7 -25.5l-40 -184h76 v91q0 27 30 27q26 0 26 -27v-175q0 -27 -26 -27q-30 0 -30 27v27h-110q-30 0 -30 27q0 17 3 29l44 194q6 23 27 23zM56 412h199q34 0 34 -31q0 -34 -34 -34h-199q-32 0 -32 34q0 31 32 31z" />
<glyph unicode="&#xbf;" horiz-adv-x="513" d="M430 -115h-341q-18 0 -32.5 14t-14.5 32v187q0 21 21 39l157 116v49q0 44 42 44q51 0 51 -44v-73q0 -24 -21 -39l-157 -117v-115h295q46 0 46 -47q0 -46 -46 -46zM268 452q-37 0 -63 26t-26 63q0 36 26 62t63 26q36 0 62 -26t26 -62q0 -37 -26 -63t-62 -26z" />
<glyph unicode="&#xc0;" d="M496 -1q-41 0 -45 40l-15 100h-296l-13 -100q-6 -40 -46 -40q-20 0 -34 13t-14 32q0 6 1 8l87 611q11 71 93 71h151q83 0 92 -70l87 -620q0 -19 -14 -32t-34 -13zM208 617l-55 -385h270l-53 385q-4 23 -23 23h-117q-19 0 -22 -23zM183 971q10 0 19 -5l150 -74 q20 -11 20 -31q0 -14 -12 -27t-28 -13q-8 0 -17 4l-150 76q-21 11 -21 33q0 14 11.5 25.5t27.5 11.5z" />
<glyph unicode="&#xc1;" d="M496 -1q-41 0 -45 40l-15 100h-296l-13 -100q-6 -40 -46 -40q-20 0 -34 13t-14 32q0 6 1 8l87 611q11 71 93 71h151q83 0 92 -70l87 -620q0 -19 -14 -32t-34 -13zM208 617l-55 -385h270l-53 385q-4 23 -23 23h-117q-19 0 -22 -23zM393 971q16 0 27.5 -11.5t11.5 -25.5 q0 -23 -21 -33l-150 -76q-9 -4 -17 -4q-16 0 -28 13t-12 27q0 20 20 31l150 74q9 5 19 5z" />
<glyph unicode="&#xc2;" d="M496 -1q-41 0 -45 40l-15 100h-296l-13 -100q-6 -40 -46 -40q-20 0 -34 13t-14 32q0 6 1 8l87 611q11 71 93 71h151q83 0 92 -70l87 -620q0 -19 -14 -32t-34 -13zM208 617l-55 -385h270l-53 385q-4 23 -23 23h-117q-19 0 -22 -23zM289 974q28 0 55 -29l68 -68 q11 -11 11 -25t-11 -24.5t-25 -10.5q-12 0 -23 11l-75 76l-77 -76q-11 -11 -24 -11t-23.5 10.5t-10.5 24.5q0 11 9 25l70 67q25 30 56 30z" />
<glyph unicode="&#xc3;" d="M496 -1q-41 0 -45 40l-15 100h-296l-13 -100q-6 -40 -46 -40q-20 0 -34 13t-14 32q0 6 1 8l87 611q11 71 93 71h151q83 0 92 -70l87 -620q0 -19 -14 -32t-34 -13zM208 617l-55 -385h270l-53 385q-4 23 -23 23h-117q-19 0 -22 -23zM357 811q-33 0 -56.5 12.5t-41 25 t-35.5 12.5q-8 0 -13.5 -6.5t-8.5 -14t-11.5 -14t-22.5 -6.5q-15 0 -26 9.5t-11 23.5q0 27 29 49.5t60 22.5q42 0 78 -25t55 -25q10 0 15.5 10.5t14.5 21t26 10.5q15 0 26 -10t11 -24q0 -26 -29 -49t-60 -23z" />
<glyph unicode="&#xc4;" d="M496 -1q-41 0 -45 40l-15 100h-296l-13 -100q-6 -40 -46 -40q-20 0 -34 13t-14 32q0 6 1 8l87 611q11 71 93 71h151q83 0 92 -70l87 -620q0 -19 -14 -32t-34 -13zM208 617l-55 -385h270l-53 385q-4 23 -23 23h-117q-19 0 -22 -23zM176 948q24 0 41 -15.5t17 -38.5 t-17 -38.5t-41 -15.5q-23 0 -40.5 15.5t-17.5 38.5t17.5 38.5t40.5 15.5zM400 948q24 0 41 -15.5t17 -38.5t-17 -38.5t-41 -15.5q-23 0 -40 15.5t-17 38.5t17 38.5t40 15.5z" />
<glyph unicode="&#xc5;" d="M496 -1q-41 0 -45 40l-15 100h-296l-13 -100q-6 -40 -46 -40q-20 0 -34 13t-14 32q0 6 1 8l87 611q11 71 93 71h151q83 0 92 -70l87 -620q0 -19 -14 -32t-34 -13zM208 617l-55 -385h270l-53 385q-4 23 -23 23h-117q-19 0 -22 -23zM288 929q-26 0 -41 -14t-15 -42 t15.5 -43t40.5 -15q26 0 42.5 15t16.5 43q0 27 -16.5 41.5t-42.5 14.5zM288 994q53 0 86 -33t33 -88t-33 -88t-86 -33q-52 0 -85.5 36t-33.5 85q0 55 33 88t86 33z" />
<glyph unicode="&#xc6;" horiz-adv-x="811" d="M389 13q-14 16 -14 34v163h-204l-26 -170q-6 -40 -45 -40q-20 0 -34 13.5t-14 32.5l83 591q8 44 37 70.5t72 26.5h474q47 0 47 -47t-47 -47h-250v-224h235q46 0 46 -46q0 -47 -46 -47h-235v-230h258q47 0 47 -46q0 -47 -47 -47h-304q-20 0 -33 13zM184 303h191v337h-131 q-15 0 -16 -16z" />
<glyph unicode="&#xc7;" horiz-adv-x="575" d="M394 93h91q46 0 46 -46q0 -47 -47 -47h-90q-350 0 -350 365v142q0 227 218 227h219q50 0 50 -47t-50 -47h-226q-118 0 -118 -118v-157q0 -272 257 -272zM307 -14h59q17 0 17 -9l-1 -3v-5l-77 -158q-8 -15 -27 -15q-27 0 -27 12l37 161q2 17 19 17z" />
<glyph unicode="&#xc8;" horiz-adv-x="569" d="M60 281v453h414q47 0 47 -47t-47 -47h-321v-210h302q47 0 47 -47t-47 -47h-302v-87q0 -156 171 -156h160q47 0 47 -46q0 -47 -47 -47h-149q-275 0 -275 281zM189 971q10 0 19 -5l150 -74q20 -11 20 -31q0 -14 -12 -27t-28 -13q-8 0 -17 4l-150 76q-21 11 -21 33 q0 14 11.5 25.5t27.5 11.5z" />
<glyph unicode="&#xc9;" horiz-adv-x="569" d="M60 281v453h414q47 0 47 -47t-47 -47h-321v-210h302q47 0 47 -47t-47 -47h-302v-87q0 -156 171 -156h160q47 0 47 -46q0 -47 -47 -47h-149q-275 0 -275 281zM399 971q16 0 27.5 -11.5t11.5 -25.5q0 -23 -21 -33l-150 -76q-9 -4 -17 -4q-16 0 -28 13t-12 27q0 20 20 31 l150 74q9 5 19 5z" />
<glyph unicode="&#xca;" horiz-adv-x="569" d="M60 281v453h414q47 0 47 -47t-47 -47h-321v-210h302q47 0 47 -47t-47 -47h-302v-87q0 -156 171 -156h160q47 0 47 -46q0 -47 -47 -47h-149q-275 0 -275 281zM295 974q28 0 55 -29l68 -68q11 -11 11 -25t-11 -24.5t-25 -10.5q-12 0 -23 11l-75 76l-77 -76q-11 -11 -24 -11 t-23.5 10.5t-10.5 24.5q0 11 9 25l70 67q25 30 56 30z" />
<glyph unicode="&#xcb;" horiz-adv-x="569" d="M60 281v453h414q47 0 47 -47t-47 -47h-321v-210h302q47 0 47 -47t-47 -47h-302v-87q0 -156 171 -156h160q47 0 47 -46q0 -47 -47 -47h-149q-275 0 -275 281zM182 948q24 0 41 -15.5t17 -38.5t-17 -38.5t-41 -15.5q-23 0 -40.5 15.5t-17.5 38.5t17.5 38.5t40.5 15.5z M406 948q24 0 41 -15.5t17 -38.5t-17 -38.5t-41 -15.5q-23 0 -40 15.5t-17 38.5t17 38.5t40 15.5z" />
<glyph unicode="&#xcc;" horiz-adv-x="213" d="M107 734q46 0 46 -47v-640q0 -47 -46 -47q-47 0 -47 47v640q0 47 47 47zM2 971q10 0 19 -5l150 -74q20 -11 20 -31q0 -14 -12 -27t-28 -13q-8 0 -17 4l-150 76q-21 11 -21 33q0 14 11.5 25.5t27.5 11.5z" />
<glyph unicode="&#xcd;" horiz-adv-x="213" d="M107 734q46 0 46 -47v-640q0 -47 -46 -47q-47 0 -47 47v640q0 47 47 47zM212 971q16 0 27.5 -11.5t11.5 -25.5q0 -23 -21 -33l-150 -76q-9 -4 -17 -4q-16 0 -28 13t-12 27q0 20 20 31l150 74q9 5 19 5z" />
<glyph unicode="&#xce;" horiz-adv-x="213" d="M107 734q46 0 46 -47v-640q0 -47 -46 -47q-47 0 -47 47v640q0 47 47 47zM107 974q28 0 55 -29l68 -68q11 -11 11 -25t-11 -24.5t-25 -10.5q-12 0 -23 11l-75 76l-77 -76q-11 -11 -24 -11t-23.5 10.5t-10.5 24.5q0 11 9 25l70 67q25 30 56 30z" />
<glyph unicode="&#xcf;" horiz-adv-x="213" d="M107 734q46 0 46 -47v-640q0 -47 -46 -47q-47 0 -47 47v640q0 47 47 47zM-5 948q24 0 41 -15.5t17 -38.5t-17 -38.5t-41 -15.5q-23 0 -40.5 15.5t-17.5 38.5t17.5 38.5t40.5 15.5zM219 948q24 0 41 -15.5t17 -38.5t-17 -38.5t-41 -15.5q-23 0 -40 15.5t-17 38.5t17 38.5 t40 15.5z" />
<glyph unicode="&#xd0;" horiz-adv-x="624" d="M47 415h13v319h333q184 0 184 -179v-190q0 -365 -379 -365h-138v322h-13q-47 0 -47 47q0 46 47 46zM153 93h45q287 0 287 272v204q0 71 -85 71h-247v-225h89q47 0 47 -46q0 -47 -47 -47h-89v-229z" />
<glyph unicode="&#xd1;" horiz-adv-x="633" d="M122 734q40 0 63 -40l295 -526v519q0 47 46 47q47 0 47 -47v-619q0 -68 -60 -68q-41 0 -67 46l-293 525v-524q0 -47 -46 -47q-47 0 -47 47v623q0 64 62 64zM385 811q-33 0 -56.5 12.5t-41 25t-35.5 12.5q-8 0 -13.5 -6.5t-8.5 -14t-11.5 -14t-22.5 -6.5q-15 0 -26 9.5 t-11 23.5q0 27 29 49.5t60 22.5q42 0 78 -25t55 -25q10 0 15.5 10.5t14.5 21t26 10.5q15 0 26 -10t11 -24q0 -26 -29 -49t-60 -23z" />
<glyph unicode="&#xd2;" horiz-adv-x="642" d="M238 734h166q178 0 178 -179v-385q0 -170 -178 -170h-166q-178 0 -178 170v385q0 179 178 179zM226 93h189q73 0 73 66v407q0 74 -73 74h-189q-73 0 -73 -74v-407q0 -66 73 -66zM216 971q10 0 19 -5l150 -74q20 -11 20 -31q0 -14 -12 -27t-28 -13q-8 0 -17 4l-150 76 q-21 11 -21 33q0 14 11.5 25.5t27.5 11.5z" />
<glyph unicode="&#xd3;" horiz-adv-x="642" d="M238 734h166q178 0 178 -179v-385q0 -170 -178 -170h-166q-178 0 -178 170v385q0 179 178 179zM226 93h189q73 0 73 66v407q0 74 -73 74h-189q-73 0 -73 -74v-407q0 -66 73 -66zM426 971q16 0 27.5 -11.5t11.5 -25.5q0 -23 -21 -33l-150 -76q-9 -4 -17 -4q-16 0 -28 13 t-12 27q0 20 20 31l150 74q9 5 19 5z" />
<glyph unicode="&#xd4;" horiz-adv-x="642" d="M238 734h166q178 0 178 -179v-385q0 -170 -178 -170h-166q-178 0 -178 170v385q0 179 178 179zM226 93h189q73 0 73 66v407q0 74 -73 74h-189q-73 0 -73 -74v-407q0 -66 73 -66zM321 974q28 0 55 -29l68 -68q11 -11 11 -25t-11 -24.5t-25 -10.5q-12 0 -23 11l-75 76 l-77 -76q-11 -11 -24 -11t-23.5 10.5t-10.5 24.5q0 11 9 25l70 67q25 30 56 30z" />
<glyph unicode="&#xd5;" horiz-adv-x="642" d="M238 734h166q178 0 178 -179v-385q0 -170 -178 -170h-166q-178 0 -178 170v385q0 179 178 179zM226 93h189q73 0 73 66v407q0 74 -73 74h-189q-73 0 -73 -74v-407q0 -66 73 -66zM389 811q-33 0 -56.5 12.5t-41 25t-35.5 12.5q-8 0 -13.5 -6.5t-8.5 -14t-11.5 -14 t-22.5 -6.5q-15 0 -26 9.5t-11 23.5q0 27 29 49.5t60 22.5q42 0 78 -25t55 -25q10 0 15.5 10.5t14.5 21t26 10.5q15 0 26 -10t11 -24q0 -26 -29 -49t-60 -23z" />
<glyph unicode="&#xd6;" horiz-adv-x="642" d="M238 734h166q178 0 178 -179v-385q0 -170 -178 -170h-166q-178 0 -178 170v385q0 179 178 179zM226 93h189q73 0 73 66v407q0 74 -73 74h-189q-73 0 -73 -74v-407q0 -66 73 -66zM209 948q24 0 41 -15.5t17 -38.5t-17 -38.5t-41 -15.5q-23 0 -40.5 15.5t-17.5 38.5 t17.5 38.5t40.5 15.5zM433 948q24 0 41 -15.5t17 -38.5t-17 -38.5t-41 -15.5q-23 0 -40 15.5t-17 38.5t17 38.5t40 15.5z" />
<glyph unicode="&#xd7;" horiz-adv-x="480" d="M374 549q17 0 33.5 -16.5t16.5 -32.5t-17 -33l-100 -100l100 -99q17 -19 17 -34q0 -16 -17 -32.5t-33 -16.5q-15 0 -32 17l-100 99l-102 -101q-17 -17 -33 -17q-17 0 -33 16t-16 33t16 33l101 102l-101 101q-15 15 -15 34q0 17 16 33t33 16q16 0 33 -17l101 -101l100 100 q16 16 32 16z" />
<glyph unicode="&#xd8;" horiz-adv-x="642" d="M548 794q20 0 34 -13.5t14 -32.5q0 -15 -8 -24l-34 -57q28 -41 28 -112v-385q0 -170 -178 -170h-166q-46 0 -76 10l-28 -47q-15 -23 -41 -23q-19 0 -33 13t-14 33q0 12 7 23l32 55q-25 44 -25 106v385q0 179 178 179h166q41 0 76 -11l27 47q13 24 41 24zM212 93h203 q73 0 73 66v397zM415 640h-189q-73 0 -73 -74v-390l277 463q-4 1 -15 1z" />
<glyph unicode="&#xd9;" horiz-adv-x="613" d="M107 734q46 0 46 -47v-553q0 -41 39 -41h228q40 0 40 41v553q0 47 46 47q47 0 47 -47v-556q0 -131 -123 -131h-241q-129 0 -129 131v556q0 47 47 47zM201 971q10 0 19 -5l150 -74q20 -11 20 -31q0 -14 -12 -27t-28 -13q-8 0 -17 4l-150 76q-21 11 -21 33q0 14 11.5 25.5 t27.5 11.5z" />
<glyph unicode="&#xda;" horiz-adv-x="613" d="M107 734q46 0 46 -47v-553q0 -41 39 -41h228q40 0 40 41v553q0 47 46 47q47 0 47 -47v-556q0 -131 -123 -131h-241q-129 0 -129 131v556q0 47 47 47zM411 971q16 0 27.5 -11.5t11.5 -25.5q0 -23 -21 -33l-150 -76q-9 -4 -17 -4q-16 0 -28 13t-12 27q0 20 20 31l150 74 q9 5 19 5z" />
<glyph unicode="&#xdb;" horiz-adv-x="613" d="M107 734q46 0 46 -47v-553q0 -41 39 -41h228q40 0 40 41v553q0 47 46 47q47 0 47 -47v-556q0 -131 -123 -131h-241q-129 0 -129 131v556q0 47 47 47zM307 974q28 0 55 -29l68 -68q11 -11 11 -25t-11 -24.5t-25 -10.5q-12 0 -23 11l-75 76l-77 -76q-11 -11 -24 -11 t-23.5 10.5t-10.5 24.5q0 11 9 25l70 67q25 30 56 30z" />
<glyph unicode="&#xdc;" horiz-adv-x="613" d="M107 734q46 0 46 -47v-553q0 -41 39 -41h228q40 0 40 41v553q0 47 46 47q47 0 47 -47v-556q0 -131 -123 -131h-241q-129 0 -129 131v556q0 47 47 47zM194 948q24 0 41 -15.5t17 -38.5t-17 -38.5t-41 -15.5q-23 0 -40.5 15.5t-17.5 38.5t17.5 38.5t40.5 15.5zM418 948 q24 0 41 -15.5t17 -38.5t-17 -38.5t-41 -15.5q-23 0 -40 15.5t-17 38.5t17 38.5t40 15.5z" />
<glyph unicode="&#xdd;" horiz-adv-x="553" d="M477 734q20 0 34 -13.5t14 -32.5q0 -13 -4 -21l-197 -417v-203q0 -47 -47 -47q-46 0 -46 47v205l-199 415q-4 9 -4 21q0 19 14 32.5t33 13.5q29 0 42 -27l158 -342l160 342q12 27 42 27zM380 971q16 0 27.5 -11.5t11.5 -25.5q0 -23 -21 -33l-150 -76q-9 -4 -17 -4 q-16 0 -28 13t-12 27q0 20 20 31l150 74q9 5 19 5z" />
<glyph unicode="&#xde;" horiz-adv-x="569" d="M107 734q46 0 46 -47v-109h342q19 0 33 -13.5t14 -32.5v-330q0 -20 -14 -33.5t-33 -13.5h-342v-108q0 -47 -46 -47q-47 0 -47 47v640q0 47 47 47zM153 249h295v236h-295v-236z" />
<glyph unicode="&#xdf;" horiz-adv-x="518" d="M162 756h190q111 0 111 -113v-175q0 -44 -66 -73q66 -30 66 -71v-213q0 -111 -111 -111h-112q-47 0 -47 47q0 46 47 46h97q33 0 33 32v185q0 27 -35 42q-34 15 -34 44q0 25 34 44q35 16 35 43v145q0 35 -34 35h-158q-29 0 -29 -34v-582q0 -47 -47 -47q-46 0 -46 47v596 q0 113 106 113z" />
<glyph unicode="&#xe0;" d="M428 366v70h-305q-59 0 -59 47q0 46 59 46h314q34 0 59.5 -27.5t25.5 -61.5v-440h-420q-19 0 -32.5 14t-13.5 33v166q0 36 21.5 60.5t57.5 32.5zM149 93h279v183l-279 -56v-127zM183 766q10 0 19 -5l150 -74q20 -11 20 -31q0 -14 -12 -27t-28 -13q-8 0 -17 4l-150 76 q-21 10 -21 33q0 14 11.5 25.5t27.5 11.5z" />
<glyph unicode="&#xe1;" d="M428 366v70h-305q-59 0 -59 47q0 46 59 46h314q34 0 59.5 -27.5t25.5 -61.5v-440h-420q-19 0 -32.5 14t-13.5 33v166q0 36 21.5 60.5t57.5 32.5zM149 93h279v183l-279 -56v-127zM393 766q16 0 27.5 -11.5t11.5 -25.5q0 -23 -21 -33l-150 -76q-9 -4 -17 -4q-16 0 -28 13 t-12 27q0 20 20 31l150 74q9 5 19 5z" />
<glyph unicode="&#xe2;" d="M428 366v70h-305q-59 0 -59 47q0 46 59 46h314q34 0 59.5 -27.5t25.5 -61.5v-440h-420q-19 0 -32.5 14t-13.5 33v166q0 36 21.5 60.5t57.5 32.5zM149 93h279v183l-279 -56v-127zM289 769q28 0 55 -29l68 -68q11 -11 11 -25t-11 -24.5t-25 -10.5q-12 0 -23 11l-75 76 l-77 -76q-11 -11 -24 -11t-23.5 10.5t-10.5 24.5q0 11 9 25l70 67q25 30 56 30z" />
<glyph unicode="&#xe3;" d="M428 366v70h-305q-59 0 -59 47q0 46 59 46h314q34 0 59.5 -27.5t25.5 -61.5v-440h-420q-19 0 -32.5 14t-13.5 33v166q0 36 21.5 60.5t57.5 32.5zM149 93h279v183l-279 -56v-127zM357 606q-33 0 -56.5 12.5t-41 25t-35.5 12.5q-10 0 -15.5 -10t-14 -20.5t-26.5 -10.5 q-15 0 -26 9.5t-11 23.5q0 27 29 49.5t60 22.5q42 0 78 -25t55 -25q10 0 15.5 10.5t14.5 21t26 10.5q15 0 26 -10t11 -24q0 -26 -29 -49t-60 -23z" />
<glyph unicode="&#xe4;" d="M428 366v70h-305q-59 0 -59 47q0 46 59 46h314q34 0 59.5 -27.5t25.5 -61.5v-440h-420q-19 0 -32.5 14t-13.5 33v166q0 36 21.5 60.5t57.5 32.5zM149 93h279v183l-279 -56v-127zM176 743q24 0 41 -15.5t17 -38.5t-17 -38.5t-41 -15.5q-23 0 -40.5 15.5t-17.5 38.5 t17.5 38.5t40.5 15.5zM400 743q24 0 41 -15.5t17 -38.5t-17 -38.5t-41 -15.5q-23 0 -40 15.5t-17 38.5t17 38.5t40 15.5z" />
<glyph unicode="&#xe5;" d="M428 366v70h-305q-59 0 -59 47q0 46 59 46h314q34 0 59.5 -27.5t25.5 -61.5v-440h-420q-19 0 -32.5 14t-13.5 33v166q0 36 21.5 60.5t57.5 32.5zM149 93h279v183l-279 -56v-127zM288 724q-26 0 -41 -14t-15 -42t15.5 -43t40.5 -15q26 0 42.5 15t16.5 43q0 27 -16.5 41.5 t-42.5 14.5zM288 789q53 0 86 -33t33 -88t-33 -88t-86 -33q-52 0 -85.5 36t-33.5 85q0 55 33 88t86 33z" />
<glyph unicode="&#xe6;" horiz-adv-x="962" d="M127 529h729q19 0 32.5 -13.5t13.5 -32.5v-174q0 -47 -46 -47h-331v-169h331q46 0 46 -46q0 -47 -46 -47h-751q-19 0 -32.5 14t-13.5 33v144q0 36 21.5 60.5t58.5 32.5l293 60v92h-305q-59 0 -59 47q0 46 59 46zM152 93h280v161l-280 -56v-105zM525 346h284v90h-284v-90z " />
<glyph unicode="&#xe7;" horiz-adv-x="561" d="M332 93h123q46 0 46 -46q0 -47 -47 -47h-122q-283 0 -283 268v93q0 168 176 168h226q50 0 50 -46q0 -47 -50 -47h-223q-87 0 -87 -95v-73q0 -175 191 -175zM280 -14h59q17 0 17 -9v-3q0 -3 -1 -5l-77 -158q-8 -15 -27 -15q-27 0 -27 12l37 161q2 17 19 17z" />
<glyph unicode="&#xe8;" horiz-adv-x="582" d="M102 529h378q19 0 32.5 -13.5t13.5 -32.5v-207q0 -46 -46 -46h-331v-58q0 -79 97 -79h234q46 0 46 -46q0 -47 -46 -47h-262q-162 0 -162 164v319q0 19 13.5 32.5t32.5 13.5zM149 314h284v122h-284v-122zM186 766q10 0 19 -5l150 -74q20 -11 20 -31q0 -14 -12 -27t-28 -13 q-8 0 -17 4l-150 76q-21 10 -21 33q0 14 11.5 25.5t27.5 11.5z" />
<glyph unicode="&#xe9;" horiz-adv-x="582" d="M102 529h378q19 0 32.5 -13.5t13.5 -32.5v-207q0 -46 -46 -46h-331v-58q0 -79 97 -79h234q46 0 46 -46q0 -47 -46 -47h-262q-162 0 -162 164v319q0 19 13.5 32.5t32.5 13.5zM149 314h284v122h-284v-122zM396 766q16 0 27.5 -11.5t11.5 -25.5q0 -23 -21 -33l-150 -76 q-9 -4 -17 -4q-16 0 -28 13t-12 27q0 20 20 31l150 74q9 5 19 5z" />
<glyph unicode="&#xea;" horiz-adv-x="582" d="M102 529h378q19 0 32.5 -13.5t13.5 -32.5v-207q0 -46 -46 -46h-331v-58q0 -79 97 -79h234q46 0 46 -46q0 -47 -46 -47h-262q-162 0 -162 164v319q0 19 13.5 32.5t32.5 13.5zM149 314h284v122h-284v-122zM291 769q28 0 55 -29l68 -68q11 -11 11 -25t-11 -24.5t-25 -10.5 q-12 0 -23 11l-75 76l-77 -76q-11 -11 -24 -11t-23.5 10.5t-10.5 24.5q0 11 9 25l70 67q25 30 56 30z" />
<glyph unicode="&#xeb;" horiz-adv-x="582" d="M102 529h378q19 0 32.5 -13.5t13.5 -32.5v-207q0 -46 -46 -46h-331v-58q0 -79 97 -79h234q46 0 46 -46q0 -47 -46 -47h-262q-162 0 -162 164v319q0 19 13.5 32.5t32.5 13.5zM149 314h284v122h-284v-122zM179 743q24 0 41 -15.5t17 -38.5t-17 -38.5t-41 -15.5 q-23 0 -40.5 15.5t-17.5 38.5t17.5 38.5t40.5 15.5zM403 743q24 0 41 -15.5t17 -38.5t-17 -38.5t-41 -15.5q-23 0 -40 15.5t-17 38.5t17 38.5t40 15.5z" />
<glyph unicode="&#xec;" horiz-adv-x="263" d="M69 529h92q47 0 47 -46v-436q0 -47 -47 -47t-47 47v389h-44q-48 0 -48 47q0 46 47 46zM27 766q10 0 19 -5l150 -74q20 -11 20 -31q0 -14 -12 -27t-28 -13q-8 0 -17 4l-150 76q-21 10 -21 33q0 14 11.5 25.5t27.5 11.5z" />
<glyph unicode="&#xed;" horiz-adv-x="263" d="M69 529h92q47 0 47 -46v-436q0 -47 -47 -47t-47 47v389h-44q-48 0 -48 47q0 46 47 46zM236 766q16 0 27.5 -11.5t11.5 -25.5q0 -23 -21 -33l-150 -76q-9 -4 -17 -4q-16 0 -28 13t-12 27q0 20 20 31l150 74q9 5 19 5z" />
<glyph unicode="&#xee;" horiz-adv-x="263" d="M69 529h92q47 0 47 -46v-436q0 -47 -47 -47t-47 47v389h-44q-48 0 -48 47q0 46 47 46zM132 769q28 0 55 -29l68 -68q11 -11 11 -25t-11 -24.5t-25 -10.5q-12 0 -23 11l-75 76l-77 -76q-11 -11 -24 -11t-23.5 10.5t-10.5 24.5q0 11 9 25l70 67q26 30 56 30z" />
<glyph unicode="&#xef;" horiz-adv-x="263" d="M69 529h92q47 0 47 -46v-436q0 -47 -47 -47t-47 47v389h-44q-48 0 -48 47q0 46 47 46zM20 743q24 0 41 -15.5t17 -38.5t-17 -38.5t-41 -15.5q-23 0 -40.5 15.5t-17.5 38.5t17.5 38.5t40.5 15.5zM244 743q24 0 41 -15.5t17 -38.5t-17 -38.5t-41 -15.5q-23 0 -40 15.5 t-17 38.5t17 38.5t40 15.5z" />
<glyph unicode="&#xf0;" horiz-adv-x="601" d="M155 756h65q53 0 89.5 -12.5t88.5 -41.5l60 45q13 10 26 10q11 0 22.5 -14t11.5 -27q0 -14 -15 -26l-48 -36q92 -92 92 -289q0 -184 -55 -274.5t-195 -90.5q-125 0 -192 70.5t-67 168.5q0 119 65.5 177.5t172.5 58.5h167q-19 71 -62 122l-61 -45q-10 -9 -24 -9 q-12 0 -24 12.5t-12 26.5q0 17 17 28l45 34q-46 19 -102 19h-65q-50 0 -50 46q0 47 50 47zM455 382h-200q-52 0 -88 -35t-36 -106q0 -74 45 -111t114 -37q95 0 130 64t35 208v17z" />
<glyph unicode="&#xf1;" horiz-adv-x="582" d="M56 47v482h325q145 0 145 -146v-336q0 -47 -46 -47q-47 0 -47 47v336q0 53 -52 53h-232v-389q0 -47 -47 -47q-46 0 -46 47zM349 606q-33 0 -56.5 12.5t-41 25t-35.5 12.5q-10 0 -15.5 -10t-14 -20.5t-26.5 -10.5q-15 0 -26 9.5t-11 23.5q0 27 29 49.5t60 22.5 q42 0 78 -25t55 -25q10 0 15.5 10.5t14.5 21t26 10.5q15 0 26 -10t11 -24q0 -26 -29 -49t-60 -23z" />
<glyph unicode="&#xf2;" horiz-adv-x="588" d="M233 529h122q178 0 178 -178v-181q0 -170 -178 -170h-122q-177 0 -177 170v181q0 178 177 178zM222 93h144q74 0 74 66v203q0 74 -74 74h-144q-73 0 -73 -74v-203q0 -66 73 -66zM189 766q10 0 19 -5l150 -74q20 -11 20 -31q0 -14 -12 -27t-28 -13q-8 0 -17 4l-150 76 q-21 10 -21 33q0 14 11.5 25.5t27.5 11.5z" />
<glyph unicode="&#xf3;" horiz-adv-x="588" d="M233 529h122q178 0 178 -178v-181q0 -170 -178 -170h-122q-177 0 -177 170v181q0 178 177 178zM222 93h144q74 0 74 66v203q0 74 -74 74h-144q-73 0 -73 -74v-203q0 -66 73 -66zM399 766q16 0 27.5 -11.5t11.5 -25.5q0 -23 -21 -33l-150 -76q-9 -4 -17 -4q-16 0 -28 13 t-12 27q0 20 20 31l150 74q9 5 19 5z" />
<glyph unicode="&#xf4;" horiz-adv-x="588" d="M233 529h122q178 0 178 -178v-181q0 -170 -178 -170h-122q-177 0 -177 170v181q0 178 177 178zM222 93h144q74 0 74 66v203q0 74 -74 74h-144q-73 0 -73 -74v-203q0 -66 73 -66zM294 769q28 0 55 -29l68 -68q11 -11 11 -25t-11 -24.5t-25 -10.5q-12 0 -23 11l-75 76 l-77 -76q-11 -11 -24 -11t-23.5 10.5t-10.5 24.5q0 11 9 25l70 67q26 30 56 30z" />
<glyph unicode="&#xf5;" horiz-adv-x="588" d="M233 529h122q178 0 178 -178v-181q0 -170 -178 -170h-122q-177 0 -177 170v181q0 178 177 178zM222 93h144q74 0 74 66v203q0 74 -74 74h-144q-73 0 -73 -74v-203q0 -66 73 -66zM362 606q-42 0 -78 25t-55 25q-11 0 -22 -20.5t-34 -20.5q-15 0 -26 9.5t-11 23.5 q0 27 29 49.5t60 22.5q33 0 56.5 -12.5t41 -25t35.5 -12.5q10 0 15.5 10.5t14.5 21t26 10.5q15 0 26 -10t11 -24q0 -26 -29 -49t-60 -23z" />
<glyph unicode="&#xf6;" horiz-adv-x="588" d="M233 529h122q178 0 178 -178v-181q0 -170 -178 -170h-122q-177 0 -177 170v181q0 178 177 178zM222 93h144q74 0 74 66v203q0 74 -74 74h-144q-73 0 -73 -74v-203q0 -66 73 -66zM182 743q24 0 41 -15.5t17 -38.5t-17 -38.5t-41 -15.5q-23 0 -40.5 15.5t-17.5 38.5 t17.5 38.5t40.5 15.5zM406 743q24 0 41 -15.5t17 -38.5t-17 -38.5t-41 -15.5q-23 0 -40 15.5t-17 38.5t17 38.5t40 15.5z" />
<glyph unicode="&#xf7;" horiz-adv-x="529" d="M268 639q28 0 48 -21t20 -50q0 -28 -20 -49t-48 -21q-27 0 -47.5 21.5t-20.5 48.5q0 29 20 50t48 21zM268 242q28 0 48 -21t20 -50q0 -28 -20 -49t-48 -21t-48 21t-20 49q0 29 20 50t48 21zM75 415h378q47 0 47 -46q0 -47 -47 -47h-378q-46 0 -46 47q0 46 46 46z" />
<glyph unicode="&#xf8;" horiz-adv-x="588" d="M456 574q20 0 34 -13.5t14 -32.5q0 -13 -8 -24l-10 -18q47 -45 47 -135v-181q0 -170 -178 -170h-122q-17 0 -41 2l-12 -20q-15 -23 -41 -23q-20 0 -34 13t-14 32q0 13 8 24l5 10q-48 40 -48 132v181q0 178 177 178h122q24 0 45 -3l15 25q15 23 41 23zM157 123l188 313 h-123q-73 0 -73 -74v-203q0 -25 8 -36zM433 400l-187 -307h120q74 0 74 66v203q0 19 -7 38z" />
<glyph unicode="&#xf9;" horiz-adv-x="571" d="M515 483v-483h-314q-145 0 -145 147v336q0 46 46 46q47 0 47 -46v-336q0 -54 52 -54h221v390q0 46 46 46q47 0 47 -46zM180 766q10 0 19 -5l150 -74q20 -11 20 -31q0 -14 -12 -27t-28 -13q-8 0 -17 4l-150 76q-21 10 -21 33q0 14 11.5 25.5t27.5 11.5z" />
<glyph unicode="&#xfa;" horiz-adv-x="571" d="M515 483v-483h-314q-145 0 -145 147v336q0 46 46 46q47 0 47 -46v-336q0 -54 52 -54h221v390q0 46 46 46q47 0 47 -46zM390 766q16 0 27.5 -11.5t11.5 -25.5q0 -23 -21 -33l-150 -76q-9 -4 -17 -4q-16 0 -28 13t-12 27q0 20 20 31l150 74q9 5 19 5z" />
<glyph unicode="&#xfb;" horiz-adv-x="571" d="M515 483v-483h-314q-145 0 -145 147v336q0 46 46 46q47 0 47 -46v-336q0 -54 52 -54h221v390q0 46 46 46q47 0 47 -46zM286 769q28 0 55 -29l68 -68q11 -11 11 -25t-11 -24.5t-25 -10.5q-12 0 -23 11l-75 76l-77 -76q-11 -11 -24 -11t-23.5 10.5t-10.5 24.5q0 11 9 25 l70 67q26 30 56 30z" />
<glyph unicode="&#xfc;" horiz-adv-x="571" d="M515 483v-483h-314q-145 0 -145 147v336q0 46 46 46q47 0 47 -46v-336q0 -54 52 -54h221v390q0 46 46 46q47 0 47 -46zM173 743q24 0 41 -15.5t17 -38.5t-17 -38.5t-41 -15.5q-23 0 -40.5 15.5t-17.5 38.5t17.5 38.5t40.5 15.5zM397 743q24 0 41 -15.5t17 -38.5 t-17 -38.5t-41 -15.5q-23 0 -40 15.5t-17 38.5t17 38.5t40 15.5z" />
<glyph unicode="&#xfd;" horiz-adv-x="571" d="M490 529q25 0 39 -13t14 -32q0 -11 -4 -19l-236 -602q-27 -67 -78 -67h-80q-19 0 -32 14t-13 33q0 47 63 47h49l43 111q-39 0 -51 29l-173 435q-3 9 -3 18q0 20 14 33t39 13q30 0 42 -29l164 -413l160 413q12 29 43 29zM391 766q16 0 27.5 -11.5t11.5 -25.5 q0 -23 -21 -33l-150 -76q-9 -4 -17 -4q-16 0 -28 13t-12 27q0 20 20 31l150 74q9 5 19 5z" />
<glyph unicode="&#xfe;" horiz-adv-x="588" d="M149 529h284q100 0 100 -97v-177q0 -255 -220 -255h-164v-158q0 -46 -47 -46q-46 0 -46 46v867q0 47 46 47q47 0 47 -47v-180zM149 436v-343h166q125 0 125 151v192h-291z" />
<glyph unicode="&#xff;" horiz-adv-x="571" d="M490 529q25 0 39 -13t14 -32q0 -11 -4 -19l-236 -602q-27 -67 -78 -67h-80q-19 0 -32 14t-13 33q0 47 63 47h49l43 111q-39 0 -51 29l-173 435q-3 9 -3 18q0 20 14 33t39 13q30 0 42 -29l164 -413l160 413q12 29 43 29zM175 743q24 0 41 -15.5t17 -38.5t-17 -38.5 t-41 -15.5q-23 0 -40.5 15.5t-17.5 38.5t17.5 38.5t40.5 15.5zM399 743q24 0 41 -15.5t17 -38.5t-17 -38.5t-41 -15.5q-23 0 -40 15.5t-17 38.5t17 38.5t40 15.5z" />
<glyph unicode="&#x152;" horiz-adv-x="991" d="M501 696v38h401q47 0 47 -47t-47 -47h-320v-210h302q46 0 46 -47t-46 -47h-302v-87q0 -156 171 -156h159q47 0 47 -46q0 -47 -47 -47h-148q-137 0 -206 69q-40 -69 -154 -69h-166q-178 0 -178 170v385q0 179 178 179h160q65 0 103 -38zM226 93h189q73 0 73 66v407 q0 74 -73 74h-189q-73 0 -73 -74v-407q0 -66 73 -66z" />
<glyph unicode="&#x153;" horiz-adv-x="966" d="M526 528h338q19 0 32.5 -13.5t13.5 -32.5v-207q0 -46 -46 -46h-331v-58q0 -79 97 -79h234q46 0 46 -46q0 -47 -46 -47h-262q-77 0 -119 57q-45 -56 -128 -56h-122q-177 0 -177 170v181q0 178 177 178h122q66 0 95 -41q15 40 76 40zM222 93h144q74 0 74 66v203 q0 74 -74 74h-144q-73 0 -73 -74v-203q0 -66 73 -66zM533 313h284v122h-284v-122z" />
<glyph unicode="&#x178;" horiz-adv-x="553" d="M477 734q20 0 34 -13.5t14 -32.5q0 -13 -4 -21l-197 -417v-203q0 -47 -47 -47q-46 0 -46 47v205l-199 415q-4 9 -4 21q0 19 14 32.5t33 13.5q29 0 42 -27l158 -342l160 342q12 27 42 27zM164 948q24 0 41 -15.5t17 -38.5t-17 -38.5t-41 -15.5q-23 0 -40.5 15.5 t-17.5 38.5t17.5 38.5t40.5 15.5zM388 948q24 0 41 -15.5t17 -38.5t-17 -38.5t-41 -15.5q-23 0 -40 15.5t-17 38.5t17 38.5t40 15.5z" />
<glyph unicode="&#x2c6;" horiz-adv-x="357" d="M179 769q28 0 55 -29l68 -68q11 -11 11 -25t-11 -24.5t-25 -10.5q-12 0 -23 11l-75 76l-77 -76q-11 -11 -24 -11t-23.5 10.5t-10.5 24.5q0 11 9 25l70 67q25 30 56 30z" />
<glyph unicode="&#x2dc;" horiz-adv-x="403" d="M270 606q-42 0 -78 25t-55 25q-11 0 -22 -20.5t-34 -20.5q-15 0 -26 9.5t-11 23.5q0 27 29 49.5t60 22.5q33 0 56.5 -12.5t41 -25t35.5 -12.5q10 0 15.5 10.5t14.5 21t26 10.5q15 0 26 -10t11 -24q0 -26 -29 -49t-60 -23z" />
<glyph unicode="&#x2013;" horiz-adv-x="705" d="M105 415h494q47 0 47 -46q0 -47 -47 -47h-494q-46 0 -46 47q0 46 46 46z" />
<glyph unicode="&#x2014;" horiz-adv-x="876" d="M105 415h665q47 0 47 -46q0 -47 -47 -47h-665q-46 0 -46 47q0 46 46 46z" />
<glyph unicode="&#x2018;" horiz-adv-x="285" d="M58 757h94q25 0 31 -27l58 -256q0 -20 -42 -20q-32 0 -42 24l-125 252q-2 12 -2 13q0 14 28 14z" />
<glyph unicode="&#x2019;" horiz-adv-x="286" d="M133 757h95q27 0 27 -14q0 -1 -2 -13l-124 -252q-12 -24 -42 -24q-43 0 -43 20l58 256q4 27 31 27z" />
<glyph unicode="&#x201a;" horiz-adv-x="286" d="M133 133h95q27 0 27 -14q0 -2 -2 -12l-124 -252q-12 -25 -42 -25q-43 0 -43 20l58 257q5 26 31 26z" />
<glyph unicode="&#x201c;" horiz-adv-x="516" d="M281 757h94q25 0 31 -27l58 -256q0 -20 -42 -20q-32 0 -42 24l-125 252q-2 12 -2 13q0 14 28 14zM70 757h94q25 0 31 -27l58 -256q0 -20 -42 -20q-32 0 -42 24l-125 252q-2 12 -2 13q0 14 28 14z" />
<glyph unicode="&#x201d;" horiz-adv-x="515" d="M351 757h94q28 0 28 -14q0 -1 -2 -13l-125 -252q-10 -24 -42 -24q-42 0 -42 20l58 256q4 27 31 27zM140 757h94q28 0 28 -14q0 -1 -2 -13l-125 -252q-10 -24 -42 -24q-42 0 -42 20l58 256q2 14 9 20.5t22 6.5z" />
<glyph unicode="&#x201e;" horiz-adv-x="515" d="M351 133h94q28 0 28 -14q0 -2 -2 -12l-125 -252q-10 -25 -42 -25q-42 0 -42 20l58 257q5 26 31 26zM140 133h94q28 0 28 -14q0 -2 -2 -12l-125 -252q-10 -25 -42 -25q-42 0 -42 20l58 257q5 26 31 26z" />
<glyph unicode="&#x2022;" horiz-adv-x="400" d="M200 518q61 0 106 -44t45 -105q0 -62 -44.5 -106.5t-106.5 -44.5t-106.5 44.5t-44.5 106.5q0 61 45 105t106 44z" />
<glyph unicode="&#x2026;" horiz-adv-x="1259" d="M147 167q36 0 62 -26t26 -63t-26 -63t-62 -26q-37 0 -63 26t-26 63t26 63t63 26zM626 167q37 0 63 -26t26 -63t-26 -63t-63 -26t-63 26t-26 63t26 63t63 26zM1112 167q37 0 63 -26t26 -63t-26 -63t-63 -26t-63 26t-26 63t26 63t63 26z" />
<glyph unicode="&#x2039;" horiz-adv-x="361" d="M255 577q19 0 33 -14t14 -34q0 -17 -13 -32l-138 -137l138 -138q13 -16 13 -33q0 -19 -14 -33t-33 -14q-18 0 -33 15l-134 127q-48 44 -48 76q0 30 48 75l134 128q14 14 33 14z" />
<glyph unicode="&#x203a;" horiz-adv-x="361" d="M105 577q20 0 34 -14l134 -128q48 -47 48 -75q0 -31 -48 -76l-134 -127q-15 -15 -34 -15t-32.5 14t-13.5 33t13 33l138 138l-138 137q-13 13 -13 32q0 20 13.5 34t32.5 14z" />
<glyph unicode="&#x20ac;" horiz-adv-x="595" d="M87 317h6q-2 34 -2 48q0 19 2 55h-6q-47 0 -47 46q0 47 47 47h23q63 221 331 221h53q50 0 50 -47t-50 -47h-53q-177 0 -232 -127h211q46 0 46 -47q0 -46 -46 -46h-235q-2 -48 -2 -75q0 -19 2 -28h157q47 0 47 -46q0 -47 -47 -47h-134q54 -131 233 -131h57q46 0 46 -46 q0 -47 -47 -47h-56q-271 0 -332 224h-22q-47 0 -47 47q0 46 47 46z" />
<glyph unicode="&#x2122;" horiz-adv-x="708" d="M69 735h184q32 0 32 -32q0 -31 -32 -31h-60v-261q0 -32 -33 -32q-32 0 -32 32v261h-59q-32 0 -32 31q0 32 32 32zM357 735q16 0 32 -18l103 -125l94 125q16 18 33 18q28 0 28 -35v-289q0 -31 -32 -31t-32 31v198l-61 -78v1q-11 -18 -29 -18q-17 0 -29 15l-70 88v-206 q0 -31 -32 -31t-32 31v289q0 35 27 35z" />
<glyph unicode="&#xe000;" horiz-adv-x="530" d="M0 530h530v-530h-530v530z" />
<glyph unicode="&#xfb01;" horiz-adv-x="671" d="M558 756q30 0 52 -21.5t22 -52.5t-22 -53t-52 -22q-31 0 -53.5 22t-22.5 53t22.5 52.5t53.5 21.5zM477 529h92q47 0 47 -46v-436q0 -47 -47 -47t-47 47v389h-44q-48 0 -48 47q0 46 47 46zM148 756h192q46 0 46 -47q0 -46 -47 -46h-145v-134h125q46 0 46 -46 q0 -47 -46 -47h-125v-389q0 -47 -46 -47q-47 0 -47 47v389h-24q-55 0 -55 47q0 46 55 46h24v180q0 18 14 32.5t33 14.5z" />
<glyph unicode="&#xfb02;" horiz-adv-x="671" d="M602 -1h-92q-46 0 -46 47v663q0 47 46 47q47 0 47 -47v-617h44q48 0 48 -46q0 -47 -47 -47zM148 756h192q46 0 46 -47q0 -46 -47 -46h-145v-134h125q46 0 46 -46q0 -47 -46 -47h-125v-389q0 -47 -46 -47q-47 0 -47 47v389h-24q-55 0 -55 47q0 46 55 46h24v180 q0 18 14 32.5t33 14.5z" />
<glyph unicode="&#xfb03;" horiz-adv-x="1079" d="M966 756q30 0 52 -21.5t22 -52.5t-22 -53t-52 -22q-31 0 -53.5 22t-22.5 53t22.5 52.5t53.5 21.5zM885 529h92q47 0 47 -46v-436q0 -47 -47 -47t-47 47v389h-44q-48 0 -48 47q0 46 47 46zM556 756h192q46 0 46 -47q0 -46 -47 -46h-145v-134h125q46 0 46 -46 q0 -47 -46 -47h-125v-389q0 -47 -46 -47q-47 0 -47 47v389h-24q-55 0 -55 47q0 46 55 46h24v180q0 18 14 32.5t33 14.5zM148 756h192q46 0 46 -47q0 -46 -47 -46h-145v-134h125q46 0 46 -46q0 -47 -46 -47h-125v-389q0 -47 -46 -47q-47 0 -47 47v389h-24q-55 0 -55 47 q0 46 55 46h24v180q0 18 14 32.5t33 14.5z" />
<glyph unicode="&#xfb04;" horiz-adv-x="1079" d="M1010 -1h-92q-46 0 -46 47v663q0 47 46 47q47 0 47 -47v-617h44q48 0 48 -46q0 -47 -47 -47zM556 756h192q46 0 46 -47q0 -46 -47 -46h-145v-134h125q46 0 46 -46q0 -47 -46 -47h-125v-389q0 -47 -46 -47q-47 0 -47 47v389h-24q-55 0 -55 47q0 46 55 46h24v180 q0 18 14 32.5t33 14.5zM148 756h192q46 0 46 -47q0 -46 -47 -46h-145v-134h125q46 0 46 -46q0 -47 -46 -47h-125v-389q0 -47 -46 -47q-47 0 -47 47v389h-24q-55 0 -55 47q0 46 55 46h24v180q0 18 14 32.5t33 14.5z" />
</font>
</defs>
</svg>
